<svg width="48" height="48" viewBox="0 0 48 48" fill="none" xmlns="http://www.w3.org/2000/svg">
<foreignObject x="-28" y="-28" width="104" height="104"><div xmlns="http://www.w3.org/1999/xhtml" style="backdrop-filter:blur(14px);clip-path:url(#bgblur_0_2001_130_clip_path);height:100%;width:100%"></div></foreignObject><g data-figma-bg-blur-radius="28">
<rect width="48" height="48" rx="16" fill="white" fill-opacity="0.1"/>
<path d="M17.4553 20.1488V34.9982H12.3V20.1488H17.4553ZM17.7831 15.5644C17.784 15.591 17.785 15.6221 17.785 15.6542C17.785 16.3407 17.4811 16.9584 16.9957 17.391L16.9938 17.3919C16.473 17.8484 15.7764 18.1279 15.011 18.1279C14.9642 18.1279 14.9164 18.127 14.8696 18.1251H14.8763H14.8447C14.8055 18.127 14.7597 18.1279 14.7138 18.1279C13.9646 18.1279 13.2843 17.8474 12.7788 17.391L12.7797 17.3919C12.2981 16.9447 12 16.3196 12 15.6276C12 15.6056 12 15.5837 12.001 15.5607V15.5644C12 15.5452 12 15.5232 12 15.5012C12 14.8028 12.3096 14.1741 12.8036 13.7332L12.8055 13.7323C13.3254 13.2786 14.0201 13 14.7817 13C14.8256 13 14.8686 13.0009 14.9126 13.0027H14.9068C14.9479 13.0009 14.9947 13 15.0435 13C15.7936 13 16.4768 13.2777 16.9871 13.7314L16.9852 13.7295C17.4773 14.1851 17.7831 14.8229 17.7831 15.5296V15.5681V15.5662V15.5644ZM35.9981 26.4893V34.9982H30.8591V27.0566C30.8638 26.9842 30.8657 26.8998 30.8657 26.8155C30.8657 25.9943 30.6278 25.2272 30.214 24.5728L30.2255 24.5921C29.8175 24.0458 29.1581 23.6948 28.4138 23.6948C28.3564 23.6948 28.2991 23.6966 28.2418 23.7012H28.2494C28.2236 23.7003 28.194 23.6994 28.1644 23.6994C27.5719 23.6994 27.0272 23.8946 26.5963 24.2218L26.602 24.2181C26.1691 24.5545 25.8299 24.9843 25.6159 25.4783L25.6082 25.4994C25.4974 25.8248 25.4343 26.1987 25.4343 26.5873C25.4343 26.6313 25.4353 26.6753 25.4372 26.7193V26.7129V35H20.2981C20.3192 31.0144 20.3297 27.7828 20.3297 25.3051C20.3297 22.8275 20.3246 21.3491 20.3144 20.8701L20.2991 20.1506H25.4381V22.3081H25.4066C25.6111 21.9919 25.8223 21.7179 26.0545 21.4613L26.0468 21.4695C26.3153 21.1863 26.6039 20.9306 26.9145 20.7015L26.9298 20.6905C27.3158 20.4054 27.7688 20.1818 28.2599 20.0452L28.2886 20.0388C28.8027 19.8913 29.3942 19.806 30.0057 19.806H30.0812H30.0774C30.1452 19.8033 30.2246 19.8014 30.3039 19.8014C31.9102 19.8014 33.3569 20.4558 34.3708 21.5025L34.3736 21.5062C35.4579 22.6402 36 24.3009 36 26.4883L35.9981 26.4893Z" fill="white"/>
</g>
<defs>
<clipPath id="bgblur_0_2001_130_clip_path" transform="translate(28 28)"><rect width="48" height="48" rx="16"/>
</clipPath></defs>
</svg>
